<mxfile host="Electron" modified="2023-09-27T18:03:00.697Z" agent="Mozilla/5.0 (Windows NT 10.0; Win64; x64) AppleWebKit/537.36 (KHTML, like Gecko) draw.io/21.8.2 Chrome/114.0.5735.289 Electron/25.8.1 Safari/537.36" etag="cwFT-n_R6JQJ1Hqqbwlt" version="21.8.2" type="device">
  <diagram name="Página-1" id="YNyVJTBmWqMZhugmkj5J">
    <mxGraphModel dx="757" dy="571" grid="1" gridSize="10" guides="1" tooltips="1" connect="1" arrows="1" fold="1" page="1" pageScale="1" pageWidth="827" pageHeight="1169" math="0" shadow="0">
      <root>
        <mxCell id="0" />
        <mxCell id="1" parent="0" />
        <mxCell id="RFHN342lPnyR1XRMWOpw-1" value="Cliente" style="shape=umlActor;verticalLabelPosition=bottom;verticalAlign=top;html=1;outlineConnect=0;" vertex="1" parent="1">
          <mxGeometry x="132.5" y="410" width="30" height="60" as="geometry" />
        </mxCell>
        <mxCell id="RFHN342lPnyR1XRMWOpw-2" value="Acessar perfil" style="ellipse;whiteSpace=wrap;html=1;" vertex="1" parent="1">
          <mxGeometry x="90" y="260" width="115" height="50" as="geometry" />
        </mxCell>
        <mxCell id="RFHN342lPnyR1XRMWOpw-3" value="" style="endArrow=none;html=1;rounded=0;entryX=0.5;entryY=1;entryDx=0;entryDy=0;exitX=0.5;exitY=0;exitDx=0;exitDy=0;exitPerimeter=0;" edge="1" parent="1" source="RFHN342lPnyR1XRMWOpw-1" target="RFHN342lPnyR1XRMWOpw-2">
          <mxGeometry width="50" height="50" relative="1" as="geometry">
            <mxPoint x="102.5" y="380" as="sourcePoint" />
            <mxPoint x="152.5" y="330" as="targetPoint" />
          </mxGeometry>
        </mxCell>
        <mxCell id="RFHN342lPnyR1XRMWOpw-4" value="Usuário&amp;nbsp;" style="shape=umlActor;verticalLabelPosition=bottom;verticalAlign=top;html=1;outlineConnect=0;" vertex="1" parent="1">
          <mxGeometry x="350" y="430" width="30" height="60" as="geometry" />
        </mxCell>
        <mxCell id="RFHN342lPnyR1XRMWOpw-5" value="" style="endArrow=classic;html=1;rounded=0;" edge="1" parent="1" source="RFHN342lPnyR1XRMWOpw-4" target="RFHN342lPnyR1XRMWOpw-1">
          <mxGeometry width="50" height="50" relative="1" as="geometry">
            <mxPoint x="290" y="500" as="sourcePoint" />
            <mxPoint x="340" y="450" as="targetPoint" />
          </mxGeometry>
        </mxCell>
        <mxCell id="RFHN342lPnyR1XRMWOpw-6" value="" style="endArrow=none;html=1;rounded=0;exitX=0.25;exitY=0.1;exitDx=0;exitDy=0;exitPerimeter=0;entryX=0.5;entryY=1;entryDx=0;entryDy=0;" edge="1" parent="1" source="RFHN342lPnyR1XRMWOpw-4" target="RFHN342lPnyR1XRMWOpw-8">
          <mxGeometry width="50" height="50" relative="1" as="geometry">
            <mxPoint x="320" y="380" as="sourcePoint" />
            <mxPoint x="300" y="320" as="targetPoint" />
          </mxGeometry>
        </mxCell>
        <mxCell id="RFHN342lPnyR1XRMWOpw-7" value="" style="endArrow=none;html=1;rounded=0;exitX=0.75;exitY=0.1;exitDx=0;exitDy=0;exitPerimeter=0;entryX=0.5;entryY=1;entryDx=0;entryDy=0;" edge="1" parent="1" source="RFHN342lPnyR1XRMWOpw-4" target="RFHN342lPnyR1XRMWOpw-14">
          <mxGeometry width="50" height="50" relative="1" as="geometry">
            <mxPoint x="389" y="430" as="sourcePoint" />
            <mxPoint x="540" y="225" as="targetPoint" />
          </mxGeometry>
        </mxCell>
        <mxCell id="RFHN342lPnyR1XRMWOpw-8" value="Fazer login" style="ellipse;whiteSpace=wrap;html=1;" vertex="1" parent="1">
          <mxGeometry x="230" y="307.5" width="120" height="40" as="geometry" />
        </mxCell>
        <mxCell id="RFHN342lPnyR1XRMWOpw-9" value="" style="endArrow=none;html=1;rounded=0;exitX=0.5;exitY=0;exitDx=0;exitDy=0;entryX=0.5;entryY=1;entryDx=0;entryDy=0;" edge="1" parent="1" source="RFHN342lPnyR1XRMWOpw-8" target="RFHN342lPnyR1XRMWOpw-12">
          <mxGeometry width="50" height="50" relative="1" as="geometry">
            <mxPoint x="330" y="270" as="sourcePoint" />
            <mxPoint x="305" y="230" as="targetPoint" />
          </mxGeometry>
        </mxCell>
        <mxCell id="RFHN342lPnyR1XRMWOpw-11" value="&amp;lt;&amp;lt;include&amp;gt;&amp;gt;" style="edgeLabel;html=1;align=center;verticalAlign=middle;resizable=0;points=[];" vertex="1" connectable="0" parent="RFHN342lPnyR1XRMWOpw-9">
          <mxGeometry x="0.094" y="-1" relative="1" as="geometry">
            <mxPoint as="offset" />
          </mxGeometry>
        </mxCell>
        <mxCell id="RFHN342lPnyR1XRMWOpw-12" value="Gerencia usuário" style="ellipse;whiteSpace=wrap;html=1;" vertex="1" parent="1">
          <mxGeometry x="235" y="170" width="110" height="40" as="geometry" />
        </mxCell>
        <mxCell id="RFHN342lPnyR1XRMWOpw-14" value="Criar conta" style="ellipse;whiteSpace=wrap;html=1;" vertex="1" parent="1">
          <mxGeometry x="400" y="307.5" width="120" height="40" as="geometry" />
        </mxCell>
        <mxCell id="RFHN342lPnyR1XRMWOpw-15" value="" style="endArrow=classic;html=1;rounded=0;" edge="1" parent="1" source="RFHN342lPnyR1XRMWOpw-4" target="RFHN342lPnyR1XRMWOpw-16">
          <mxGeometry width="50" height="50" relative="1" as="geometry">
            <mxPoint x="470" y="520" as="sourcePoint" />
            <mxPoint x="590" y="430" as="targetPoint" />
          </mxGeometry>
        </mxCell>
        <mxCell id="RFHN342lPnyR1XRMWOpw-16" value="Gerente" style="shape=umlActor;verticalLabelPosition=bottom;verticalAlign=top;html=1;outlineConnect=0;" vertex="1" parent="1">
          <mxGeometry x="600" y="410" width="30" height="60" as="geometry" />
        </mxCell>
        <mxCell id="RFHN342lPnyR1XRMWOpw-17" value="" style="endArrow=none;html=1;rounded=0;exitX=0.75;exitY=0.1;exitDx=0;exitDy=0;exitPerimeter=0;entryX=0.5;entryY=1;entryDx=0;entryDy=0;" edge="1" target="RFHN342lPnyR1XRMWOpw-18" parent="1" source="RFHN342lPnyR1XRMWOpw-16">
          <mxGeometry width="50" height="50" relative="1" as="geometry">
            <mxPoint x="625.5" y="410.0000000000001" as="sourcePoint" />
            <mxPoint x="740" y="193" as="targetPoint" />
          </mxGeometry>
        </mxCell>
        <mxCell id="RFHN342lPnyR1XRMWOpw-18" value="Gerenciar produtos" style="ellipse;whiteSpace=wrap;html=1;" vertex="1" parent="1">
          <mxGeometry x="640" y="250" width="120" height="40" as="geometry" />
        </mxCell>
        <mxCell id="RFHN342lPnyR1XRMWOpw-19" value="" style="endArrow=none;html=1;rounded=0;exitX=0.25;exitY=0.1;exitDx=0;exitDy=0;exitPerimeter=0;entryX=0.5;entryY=1;entryDx=0;entryDy=0;" edge="1" parent="1" source="RFHN342lPnyR1XRMWOpw-16" target="RFHN342lPnyR1XRMWOpw-20">
          <mxGeometry width="50" height="50" relative="1" as="geometry">
            <mxPoint x="580" y="300" as="sourcePoint" />
            <mxPoint x="540" y="280" as="targetPoint" />
          </mxGeometry>
        </mxCell>
        <mxCell id="RFHN342lPnyR1XRMWOpw-20" value="Cadastrar adms" style="ellipse;whiteSpace=wrap;html=1;" vertex="1" parent="1">
          <mxGeometry x="480" y="250" width="120" height="40" as="geometry" />
        </mxCell>
      </root>
    </mxGraphModel>
  </diagram>
</mxfile>
